<?xml version="1.0" encoding="UTF-8"?>
<svg version="1.1" xmlns="http://www.w3.org/2000/svg" width="449" height="408">
<path d="M0 0 C148.17 0 296.34 0 449 0 C449 134.64 449 269.28 449 408 C300.83 408 152.66 408 0 408 C0 273.36 0 138.72 0 0 Z " fill="#616161" transform="translate(0,0)"/>
<path d="M0 0 C0.66 0 1.32 0 2 0 C2 134.64 2 269.28 2 408 C-146.17 408 -294.34 408 -447 408 C-447 357.51 -447 307.02 -447 255 C-424.56 255 -402.12 255 -379 255 C-379 217.38 -379 179.76 -379 141 C-366.46 141 -353.92 141 -341 141 C-341 178.62 -341 216.24 -341 255 C-278.3 255 -215.6 255 -151 255 C-151 242.46 -151 229.92 -151 217 C-138.46 217 -125.92 217 -113 217 C-113 229.54 -113 242.08 -113 255 C-100.86826403 254.96039717 -100.86826403 254.96039717 -88.73657227 254.90991211 C-87.22151764 254.90699293 -85.70646223 254.90444438 -84.19140625 254.90234375 C-83.39762573 254.89722778 -82.60384521 254.89211182 -81.78601074 254.88684082 C-79.85697171 254.88653044 -77.92803088 254.93764107 -76 255 C-75 256 -75 256 -74.87695217 257.88781071 C-74.87787396 258.72018977 -74.87879576 259.55256884 -74.87974548 260.41017151 C-74.87768349 261.83843262 -74.87768349 261.83843262 -74.87557983 263.29554749 C-74.87917511 264.34858566 -74.88277039 265.40162384 -74.88647461 266.48657227 C-74.88632858 267.58887177 -74.88618256 268.69117126 -74.8860321 269.82687378 C-74.88673179 273.49007092 -74.89452676 277.15321794 -74.90234375 280.81640625 C-74.90420773 283.34846468 -74.90563173 285.88052348 -74.90663147 288.4125824 C-74.91006654 294.40848249 -74.91795731 300.40436089 -74.92798096 306.40025228 C-74.93914323 313.22481058 -74.94465283 320.04936972 -74.94967639 326.87393486 C-74.96013996 340.91596848 -74.97848499 354.95797919 -75 369 C-62.46 369 -49.92 369 -37 369 C-37.00785522 363.87319702 -37.00785522 363.87319702 -37.01586914 358.64282227 C-37.0324023 347.37911839 -37.04352095 336.11541358 -37.05181217 324.85170078 C-37.05697493 318.01921026 -37.06401723 311.18673121 -37.07543945 304.35424805 C-37.08644707 297.76664695 -37.09227623 291.17905469 -37.09487724 284.59144402 C-37.096732 282.07191721 -37.10035357 279.55239109 -37.10573006 277.03286934 C-37.11293676 273.51742235 -37.1139911 270.00202539 -37.11352539 266.48657227 C-37.11712067 265.43353409 -37.12071594 264.38049591 -37.12442017 263.29554749 C-37.1230455 262.34337341 -37.12167084 261.39119934 -37.12025452 260.41017151 C-37.12163721 259.16160291 -37.12163721 259.16160291 -37.12304783 257.88781071 C-37 256 -37 256 -36 255 C-23.79 255 -11.58 255 1 255 C0.505 128.775 0.505 128.775 0 0 Z " fill="#B2ABAB" transform="translate(447,0)"/>
<path d="M0 0 C147.51 0 295.02 0 447 0 C447.63102424 17.03765443 448.14438576 33.96361704 448.11352539 50.99487305 C448.11324215 53.24513243 448.11340391 55.49539191 448.1139679 57.74565125 C448.11425053 63.75626576 448.10844156 69.76685961 448.10139394 75.7774694 C448.09507014 82.095445 448.09454956 88.41342126 448.09336853 94.73139954 C448.09063048 105.30392788 448.08441815 115.87644996 448.07543945 126.44897461 C448.0662145 137.32299768 448.05915877 148.19701871 448.05493164 159.07104492 C448.05453756 160.08195711 448.05453756 160.08195711 448.05413551 161.11329176 C448.05283016 164.49535287 448.05156653 167.87741398 448.05032361 171.25947511 C448.04001161 199.17298873 448.02216566 227.0864935 448 255 C435.79 255 423.58 255 411 255 C410.01624866 223.63614827 409.87596963 192.31653177 409.93133545 160.9395752 C409.94176367 154.38094414 409.9461738 147.82230891 409.95117188 141.26367188 C409.96173767 128.50910228 409.97924946 115.75455709 410 103 C397.46 103 384.92 103 372 103 C372 90.46 372 77.92 372 65 C384.54 65 397.08 65 410 65 C410 52.79 410 40.58 410 28 C405.81666992 28.1539624 401.63333984 28.3079248 397.32324219 28.46655273 C372.34311275 29.27344289 347.34756438 29.32197345 322.35684629 29.49062446 C314.96449903 29.54061654 307.5721828 29.59467071 300.1798645 29.64874845 C286.91355094 29.74565002 273.64721392 29.83883209 260.38085938 29.92993164 C247.69138324 30.01707152 235.00193229 30.1071301 222.3125 30.20043945 C208.34270741 30.30315909 194.37290457 30.40422224 180.4030807 30.50260442 C178.88998461 30.51326105 177.37688851 30.52391775 175.86379242 30.53457451 C175.12034172 30.53980774 174.37689101 30.54504097 173.6109115 30.55043279 C168.54086662 30.58620725 163.47082969 30.62298819 158.40079498 30.66017342 C132.78303796 30.84748558 107.16574787 31.00965259 81.54724121 31.02462769 C80.808031 31.0250605 80.06882079 31.02549331 79.30721027 31.02593924 C63.53813359 31.03348888 47.76907064 31.01305345 32 31 C32 76.21 32 121.42 32 168 C31.34 168 30.68 168 30 168 C30 184.17 30 200.34 30 217 C42.54 217 55.08 217 68 217 C68 229.54 68 242.08 68 255 C45.56 255 23.12 255 0 255 C0 170.85 0 86.7 0 0 Z " fill="#000000" transform="translate(0,0)"/>
<path d="M0 0 C0.66 0 1.32 0 2 0 C2 134.64 2 269.28 2 408 C-48.49 408 -98.98 408 -151 408 C-151 344.97 -151 281.94 -151 217 C-138.46 217 -125.92 217 -113 217 C-113 229.54 -113 242.08 -113 255 C-100.86826403 254.96039717 -100.86826403 254.96039717 -88.73657227 254.90991211 C-87.22151764 254.90699293 -85.70646223 254.90444438 -84.19140625 254.90234375 C-83.00073547 254.8946698 -83.00073547 254.8946698 -81.78601074 254.88684082 C-79.85697171 254.88653044 -77.92803088 254.93764107 -76 255 C-75 256 -75 256 -74.87695217 257.88781071 C-74.87787396 258.72018977 -74.87879576 259.55256884 -74.87974548 260.41017151 C-74.87768349 261.83843262 -74.87768349 261.83843262 -74.87557983 263.29554749 C-74.88097275 264.87510475 -74.88097275 264.87510475 -74.88647461 266.48657227 C-74.88632858 267.58887177 -74.88618256 268.69117126 -74.8860321 269.82687378 C-74.88673179 273.49007092 -74.89452676 277.15321794 -74.90234375 280.81640625 C-74.90420773 283.34846468 -74.90563173 285.88052348 -74.90663147 288.4125824 C-74.91006654 294.40848249 -74.91795731 300.40436089 -74.92798096 306.40025228 C-74.93914323 313.22481058 -74.94465283 320.04936972 -74.94967639 326.87393486 C-74.96013996 340.91596848 -74.97848499 354.95797919 -75 369 C-62.46 369 -49.92 369 -37 369 C-37.00523682 365.58213135 -37.01047363 362.1642627 -37.01586914 358.64282227 C-37.0324023 347.37911839 -37.04352095 336.11541358 -37.05181217 324.85170078 C-37.05697493 318.01921026 -37.06401723 311.18673121 -37.07543945 304.35424805 C-37.08644707 297.76664695 -37.09227623 291.17905469 -37.09487724 284.59144402 C-37.096732 282.07191721 -37.10035357 279.55239109 -37.10573006 277.03286934 C-37.11293676 273.51742235 -37.1139911 270.00202539 -37.11352539 266.48657227 C-37.11712067 265.43353409 -37.12071594 264.38049591 -37.12442017 263.29554749 C-37.1230455 262.34337341 -37.12167084 261.39119934 -37.12025452 260.41017151 C-37.12117631 259.57779244 -37.1220981 258.74541338 -37.12304783 257.88781071 C-37 256 -37 256 -36 255 C-23.79 255 -11.58 255 1 255 C0.67 170.85 0.34 86.7 0 0 Z " fill="#B2ABAB" transform="translate(447,0)"/>
<path d="M0 0 C12.54 0 25.08 0 38 0 C38 88.11 38 176.22 38 267 C3.02 267 -31.96 267 -68 267 C-68 216.51 -68 166.02 -68 114 C-45.56 114 -23.12 114 0 114 C0 76.38 0 38.76 0 0 Z " fill="#B2ABAB" transform="translate(68,141)"/>
<path d="M0 0 C12.54 0 25.08 0 38 0 C38 88.11 38 176.22 38 267 C25.46 267 12.92 267 0 267 C0 178.89 0 90.78 0 0 Z " fill="#2196F3" transform="translate(68,141)"/>
<path d="M0 0 C12.54 0 25.08 0 38 0 C38.24956592 17.11309198 38.24956592 17.11309198 38.35546875 24.70703125 C38.42629111 29.78436708 38.49757716 34.86169137 38.57275391 39.93896484 C39.21334711 83.34298118 38.94772022 126.72326165 38.53643799 170.12908936 C38.47476205 176.68109926 38.41522009 183.23312857 38.35546875 189.78515625 C38.239002 202.52345695 38.12007592 215.26173281 38 228 C25.46 228 12.92 228 0 228 C-0.13237036 213.95747614 -0.26309 199.91493931 -0.39115143 185.87237549 C-0.45072017 179.34703645 -0.51092471 172.82170476 -0.57275391 166.29638672 C-0.97885184 123.34910389 -1.17230421 80.43128218 -0.53643799 37.48626709 C-0.46287491 32.46684981 -0.3936847 27.44737022 -0.32368469 22.42790222 C-0.21897492 14.95188461 -0.10902444 7.47596148 0 0 Z " fill="#E91E63" transform="translate(372,141)"/>
<path d="M0 0 C62.7 0 125.4 0 190 0 C190 12.54 190 25.08 190 38 C127.3 38 64.6 38 0 38 C0 25.46 0 12.92 0 0 Z " fill="#000000" transform="translate(106,217)"/>
<path d="M0 0 C0.66 0 1.32 0 2 0 C2 133.98 2 267.96 2 406 C1.67 406 1.34 406 1 406 C1 393.79 1 381.58 1 369 C-11.54 369 -24.08 369 -37 369 C-37.02254783 354.28390116 -37.04097964 339.56781299 -37.05181217 324.85170078 C-37.05697493 318.01921026 -37.06401723 311.18673121 -37.07543945 304.35424805 C-37.08644707 297.76664695 -37.09227623 291.17905469 -37.09487724 284.59144402 C-37.096732 282.07191721 -37.10035357 279.55239109 -37.10573006 277.03286934 C-37.11293676 273.51742235 -37.1139911 270.00202539 -37.11352539 266.48657227 C-37.11712067 265.43353409 -37.12071594 264.38049591 -37.12442017 263.29554749 C-37.12235817 261.86728638 -37.12235817 261.86728638 -37.12025452 260.41017151 C-37.12117631 259.57779244 -37.1220981 258.74541338 -37.12304783 257.88781071 C-37 256 -37 256 -36 255 C-23.79 255 -11.58 255 1 255 C0.67 170.85 0.34 86.7 0 0 Z " fill="#B2ABAB" transform="translate(447,0)"/>
<path d="M0 0 C12.54 0 25.08 0 38 0 C38 37.95 38 75.9 38 115 C25.46 115 12.92 115 0 115 C0 77.05 0 39.1 0 0 Z " fill="#4CAF50" transform="translate(296,293)"/>
<path d="M0 0 C12.54 0 25.08 0 38 0 C38 25.08 38 50.16 38 76 C25.46 76 12.92 76 0 76 C0 50.92 0 25.84 0 0 Z " fill="#9C27B0" transform="translate(296,217)"/>
<path d="M0 0 C12.54 0 25.08 0 38 0 C38 25.08 38 50.16 38 76 C25.46 76 12.92 76 0 76 C0 50.92 0 25.84 0 0 Z " fill="#F44336" transform="translate(296,141)"/>
<path d="M0 0 C12.54 0 25.08 0 38 0 C38 12.87 38 25.74 38 39 C25.46 39 12.92 39 0 39 C0 26.13 0 13.26 0 0 Z " fill="#3F51B5" transform="translate(296,369)"/>
<path d="M0 0 C12.54 0 25.08 0 38 0 C38 12.54 38 25.08 38 38 C25.46 38 12.92 38 0 38 C0 25.46 0 12.92 0 0 Z " fill="#E91E63" transform="translate(410,369)"/>
<path d="M0 0 C12.54 0 25.08 0 38 0 C38 12.54 38 25.08 38 38 C25.46 38 12.92 38 0 38 C0 25.46 0 12.92 0 0 Z " fill="#FFFF00" transform="translate(106,179)"/>
<path d="M0 0 C12.54 0 25.08 0 38 0 C38 12.54 38 25.08 38 38 C25.46 38 12.92 38 0 38 C0 25.46 0 12.92 0 0 Z " fill="#000000" transform="translate(182,141)"/>
<path d="M0 0 C12.54 0 25.08 0 38 0 C38 12.54 38 25.08 38 38 C25.46 38 12.92 38 0 38 C0 25.46 0 12.92 0 0 Z " fill="#000000" transform="translate(296,65)"/>
<path d="M0 0 C12.54 0 25.08 0 38 0 C38 12.54 38 25.08 38 38 C25.46 38 12.92 38 0 38 C0 25.46 0 12.92 0 0 Z " fill="#000000" transform="translate(182,65)"/>
<path d="M0 0 C12.54 0 25.08 0 38 0 C38 12.54 38 25.08 38 38 C25.46 38 12.92 38 0 38 C0 25.46 0 12.92 0 0 Z " fill="#000000" transform="translate(68,65)"/>
<path d="M0 0 C12.21 0 24.42 0 37 0 C37 12.54 37 25.08 37 38 C24.79 38 12.58 38 0 38 C0 25.46 0 12.92 0 0 Z " fill="#000000" transform="translate(334,217)"/>
</svg>
